<svg width="1439" height="583" viewBox="0 0 1439 583" fill="none" xmlns="http://www.w3.org/2000/svg">
<path d="M0 300.642C54.5663 216.054 172.51 68.5587 207.752 155.278C251.806 263.677 279.339 264.176 286.348 224.713C293.356 185.25 322.892 72.3551 378.46 113.816C434.027 155.278 437.031 182.752 480.584 113.816C524.137 44.8807 537.653 -6.07175 588.715 67.8593C639.777 141.79 628.263 317.127 752.915 183.252C877.566 49.3765 944.647 21.9022 1027.75 139.293C1110.85 256.683 1158.91 109.321 1163.91 67.8593C1168.92 26.398 1228.99 -34.0456 1293.57 23.9003C1358.15 81.8462 1344.63 70.8565 1402.2 47.3784C1429.22 36.3594 1437.38 30.1888 1439.5 23.6588V7.49997C1439.5 14.2788 1441 19.058 1439.5 23.6588V228V582.5H0V300.642Z" fill="#1B1B1B"/>
</svg>
