<svg width="1440" height="320" viewBox="0 0 1440 320" fill="none" xmlns="http://www.w3.org/2000/svg">
<path d="M1440 211L1427.4 232.3C1414.7 254 1389 296 1364 280.3C1338.9 264 1314 190 1288 189.7C1263.2 190 1238 264 1213 264.3C1187.4 264 1162 190 1137 189.7C1111.6 190 1086 264 1061 275C1035.8 286 1011 232 985 216.3C960 200 935 222 909 221.7C884.2 222 859 200 834 179C808.4 158 783 136 758 163C732.6 190 707 264 682 285.7C656.8 307 632 275 606 275C581.1 275 556 307 531 285.7C505.3 264 480 190 455 157.7C429.5 126 404 136 379 157.7C353.7 179 328 211 303 200.3C277.9 190 253 136 227 141.7C202.1 147 177 211 152 216.3C126.3 222 101 168 76 184.3C50.5 200 25 286 13 328.3L0 371V-401L55.5 -401C68.2 -401 61 -401 86 -401C111.1 -401 110.5 -401 136.5 -401C161.3 -401 189 -401 214 -401C239.6 -401 249.5 -401 274.5 -401C299.9 -401 325.5 -401 350.5 -401C375.7 -401 413.5 -401 439.5 -401C464.5 -401 475.5 -401 501.5 -401C526.3 -401 528 -401 553 -401C578.6 -401 604 -401 629 -401C654.4 -401 667 -401 692 -401C717.2 -401 732 -401 758 -401C782.9 -401 838.5 -401 863.5 -401C889.2 -401 925 -401 950 -401C975.5 -401 988 -401 1013 -401C1038.3 -401 1073 -401 1098 -401C1123.1 -401 1126.5 -401 1152.5 -401C1177.4 -401 1215 -401 1240 -401C1265.7 -401 1293.5 -401 1318.5 -401C1344 -401 1428 -401 1440 -401V51V211Z" fill="#1B1B1B"/>
</svg>
