<svg width="75" height="90" viewBox="0 0 75 90" fill="none" xmlns="http://www.w3.org/2000/svg">
<path d="M72 2.5V68.5" stroke="white" stroke-width="4"/>
<line x1="17.7662" y1="1.56155" x2="38.0614" y2="39.7571" stroke="white" stroke-width="4"/>
<line x1="37.2338" y1="39.7587" x2="57.5264" y2="1.56175" stroke="white" stroke-width="4"/>
<path d="M74 4.5L55 4.50002" stroke="white" stroke-width="4"/>
<line x1="37.2336" y1="67.125" x2="72.05" y2="1.56201" stroke="white" stroke-width="4"/>
<line x1="19" y1="37.5" x2="19" y2="68.5" stroke="white" stroke-width="4"/>
<line x1="56" y1="37.5" x2="56" y2="68.5" stroke="white" stroke-width="4"/>
<path d="M3 2.78345L3 68.5" stroke="white" stroke-width="4"/>
<line x1="2.76643" y1="1.56207" x2="37.5796" y2="67.1268" stroke="white" stroke-width="4"/>
<path d="M21 39L4 6.5V68.5H20.15L21 39Z" fill="white"/>
<path d="M72.1871 2.78345V68.5" stroke="white" stroke-width="4"/>
<line y1="-2" x2="74.2325" y2="-2" transform="matrix(-0.468932 0.883234 0.883199 0.468998 74.1869 2.5)" stroke="white" stroke-width="4"/>
<path d="M54 40.724L71 6.5V68.5H54.85L54 40.724Z" fill="white"/>
<rect x="1" y="0.5" width="73" height="2" fill="#1B1B1B"/>
<path d="M36.7828 40.1971H38.5028" stroke="white" stroke-linecap="square"/>
<path d="M36.3437 67.5995C36.8031 67.5995 37.2458 67.638 37.703 67.638C38.0983 67.638 38.4935 67.638 38.8888 67.638" stroke="white" stroke-linecap="square"/>
<path d="M1.28 71.3161H1.792L6.56 81.7641L11.312 71.3161H11.824V82.5001H11.376V72.2281L6.704 82.5001H6.4L1.728 72.2281V82.5001H1.28V71.3161ZM14.8054 72.8361C14.6987 72.8361 14.6027 72.7934 14.5174 72.7081C14.432 72.6227 14.3894 72.5267 14.3894 72.4201C14.3894 72.3027 14.432 72.2067 14.5174 72.1321C14.6027 72.0467 14.6987 72.0041 14.8054 72.0041C14.9227 72.0041 15.0187 72.0467 15.0934 72.1321C15.1787 72.2067 15.2214 72.3027 15.2214 72.4201C15.2214 72.5267 15.1787 72.6227 15.0934 72.7081C15.0187 72.7934 14.9227 72.8361 14.8054 72.8361ZM14.5814 74.8201H15.0294V82.5001H14.5814V74.8201ZM17.78 74.8201H18.228V76.2441C18.644 75.6574 19.14 75.2361 19.716 74.9801C20.292 74.7134 20.9 74.5801 21.54 74.5801C22.532 74.5801 23.268 74.8361 23.748 75.3481C24.228 75.8494 24.468 76.5321 24.468 77.3961V82.5001H24.02V77.4121C24.02 76.6227 23.8227 76.0201 23.428 75.6041C23.044 75.1774 22.4147 74.9641 21.54 74.9641C20.1747 74.9641 19.0707 75.5934 18.228 76.8521V82.5001H17.78V74.8201ZM30.6319 82.7401C29.8959 82.7401 29.2239 82.5747 28.6159 82.2441C28.0079 81.9134 27.5225 81.4387 27.1599 80.8201C26.8079 80.2014 26.6319 79.4867 26.6319 78.6761C26.6319 77.8654 26.8079 77.1507 27.1599 76.5321C27.5119 75.9134 27.9919 75.4334 28.5999 75.0921C29.2185 74.7507 29.8959 74.5801 30.6319 74.5801C31.4212 74.5801 32.1519 74.7614 32.8239 75.1241C33.5065 75.4761 34.0025 75.9881 34.3119 76.6601V70.6761H34.7599V82.5001H34.3119V80.6921C33.9492 81.3534 33.4532 81.8601 32.8239 82.2121C32.1945 82.5641 31.4639 82.7401 30.6319 82.7401ZM30.6319 82.3561C31.5279 82.3561 32.3012 82.1321 32.9519 81.6841C33.6132 81.2361 34.0665 80.6121 34.3119 79.8121V77.5401C34.0879 76.7401 33.6399 76.1107 32.9679 75.6521C32.2959 75.1934 31.5172 74.9641 30.6319 74.9641C29.9812 74.9641 29.3785 75.1187 28.8239 75.4281C28.2799 75.7267 27.8479 76.1587 27.5279 76.7241C27.2079 77.2894 27.0479 77.9401 27.0479 78.6761C27.0479 79.4121 27.2079 80.0574 27.5279 80.6121C27.8479 81.1667 28.2799 81.5987 28.8239 81.9081C29.3785 82.2067 29.9812 82.3561 30.6319 82.3561ZM41.0069 82.7401C40.2709 82.7401 39.5989 82.5747 38.9909 82.2441C38.3829 81.9134 37.8975 81.4387 37.5349 80.8201C37.1829 80.2014 37.0069 79.4867 37.0069 78.6761C37.0069 77.8654 37.1829 77.1507 37.5349 76.5321C37.8975 75.9134 38.3882 75.4334 39.0069 75.0921C39.6362 74.7507 40.3242 74.5801 41.0709 74.5801C41.6362 74.5801 42.1269 74.6334 42.5429 74.7401C42.9695 74.8467 43.3589 75.0281 43.7109 75.2841V75.6841C43.3375 75.4174 42.9429 75.2307 42.5269 75.1241C42.1109 75.0174 41.6255 74.9641 41.0709 74.9641C40.3882 74.9641 39.7695 75.1134 39.2149 75.4121C38.6602 75.7107 38.2229 76.1427 37.9029 76.7081C37.5829 77.2734 37.4229 77.9294 37.4229 78.6761C37.4229 79.4227 37.5775 80.0734 37.8869 80.6281C38.2069 81.1827 38.6389 81.6094 39.1829 81.9081C39.7375 82.2067 40.3455 82.3561 41.0069 82.3561C41.6149 82.3561 42.1322 82.2974 42.5589 82.1801C42.9855 82.0521 43.4069 81.8494 43.8229 81.5721V81.9721C43.4495 82.2387 43.0335 82.4307 42.5749 82.5481C42.1269 82.6761 41.6042 82.7401 41.0069 82.7401ZM49.1948 82.7401C48.4268 82.7401 47.7388 82.5694 47.1308 82.2281C46.5228 81.8867 46.0428 81.4067 45.6908 80.7881C45.3494 80.1694 45.1788 79.4601 45.1788 78.6601C45.1788 77.8601 45.3494 77.1507 45.6908 76.5321C46.0428 75.9134 46.5228 75.4334 47.1308 75.0921C47.7388 74.7507 48.4268 74.5801 49.1948 74.5801C49.9628 74.5801 50.6508 74.7507 51.2588 75.0921C51.8668 75.4334 52.3414 75.9134 52.6828 76.5321C53.0348 77.1507 53.2108 77.8601 53.2108 78.6601C53.2108 79.4601 53.0348 80.1694 52.6828 80.7881C52.3414 81.4067 51.8668 81.8867 51.2588 82.2281C50.6508 82.5694 49.9628 82.7401 49.1948 82.7401ZM49.1948 82.3561C49.8881 82.3561 50.5068 82.2067 51.0508 81.9081C51.5948 81.5987 52.0214 81.1667 52.3308 80.6121C52.6401 80.0574 52.7948 79.4067 52.7948 78.6601C52.7948 77.9241 52.6401 77.2787 52.3308 76.7241C52.0214 76.1587 51.5948 75.7267 51.0508 75.4281C50.5068 75.1187 49.8881 74.9641 49.1948 74.9641C48.5014 74.9641 47.8828 75.1187 47.3388 75.4281C46.7948 75.7267 46.3681 76.1587 46.0588 76.7241C45.7494 77.2787 45.5948 77.9241 45.5948 78.6601C45.5948 79.4067 45.7494 80.0574 46.0588 80.6121C46.3681 81.1667 46.7948 81.5987 47.3388 81.9081C47.8828 82.2067 48.5014 82.3561 49.1948 82.3561ZM58.8975 82.7401C58.1615 82.7401 57.4895 82.5747 56.8815 82.2441C56.2735 81.9134 55.7882 81.4387 55.4255 80.8201C55.0735 80.2014 54.8975 79.4867 54.8975 78.6761C54.8975 77.8654 55.0735 77.1507 55.4255 76.5321C55.7775 75.9134 56.2575 75.4334 56.8655 75.0921C57.4842 74.7507 58.1615 74.5801 58.8975 74.5801C59.6868 74.5801 60.4175 74.7614 61.0895 75.1241C61.7722 75.4761 62.2682 75.9881 62.5775 76.6601V70.6761H63.0255V82.5001H62.5775V80.6921C62.2148 81.3534 61.7188 81.8601 61.0895 82.2121C60.4602 82.5641 59.7295 82.7401 58.8975 82.7401ZM58.8975 82.3561C59.7935 82.3561 60.5668 82.1321 61.2175 81.6841C61.8788 81.2361 62.3322 80.6121 62.5775 79.8121V77.5401C62.3535 76.7401 61.9055 76.1107 61.2335 75.6521C60.5615 75.1934 59.7828 74.9641 58.8975 74.9641C58.2468 74.9641 57.6442 75.1187 57.0895 75.4281C56.5455 75.7267 56.1135 76.1587 55.7935 76.7241C55.4735 77.2894 55.3135 77.9401 55.3135 78.6761C55.3135 79.4121 55.4735 80.0574 55.7935 80.6121C56.1135 81.1667 56.5455 81.5987 57.0895 81.9081C57.6442 82.2067 58.2468 82.3561 58.8975 82.3561ZM69.5445 82.7401C68.1792 82.7401 67.1232 82.3827 66.3765 81.6681C65.6405 80.9534 65.2725 79.9507 65.2725 78.6601C65.2725 77.4014 65.6085 76.4094 66.2805 75.6841C66.9632 74.9481 67.9232 74.5801 69.1605 74.5801C70.0032 74.5801 70.7178 74.7454 71.3045 75.0761C71.8912 75.4067 72.3285 75.8601 72.6165 76.4361C72.9152 77.0121 73.0645 77.6734 73.0645 78.4201V78.8201H65.6725C65.6725 79.9721 66.0192 80.8521 66.7125 81.4601C67.4058 82.0681 68.3498 82.3721 69.5445 82.3721C70.0352 82.3721 70.5152 82.3294 70.9845 82.2441C71.4645 82.1481 71.8858 82.0307 72.2485 81.8921V82.2761C71.9498 82.4041 71.5392 82.5107 71.0165 82.5961C70.5045 82.6921 70.0138 82.7401 69.5445 82.7401ZM72.6645 78.4521C72.6645 77.3961 72.3712 76.5481 71.7845 75.9081C71.2085 75.2681 70.3338 74.9481 69.1605 74.9481C67.9978 74.9481 67.1232 75.2787 66.5365 75.9401C65.9605 76.6014 65.6725 77.4387 65.6725 78.4521H72.6645Z" fill="white"/>
</svg>
