<svg width="44" height="43" viewBox="0 0 44 43" fill="none" xmlns="http://www.w3.org/2000/svg">
<path d="M39.9595 17.3008H29.2095C29.0247 17.3008 28.8735 17.452 28.8735 17.6367V19.6523C28.8735 19.8371 29.0247 19.9883 29.2095 19.9883H39.9595C40.1442 19.9883 40.2954 19.8371 40.2954 19.6523V17.6367C40.2954 17.452 40.1442 17.3008 39.9595 17.3008ZM34.3325 23.0117H29.2095C29.0247 23.0117 28.8735 23.1629 28.8735 23.3477V25.3633C28.8735 25.548 29.0247 25.6992 29.2095 25.6992H34.3325C34.5173 25.6992 34.6685 25.548 34.6685 25.3633V23.3477C34.6685 23.1629 34.5173 23.0117 34.3325 23.0117ZM20.3197 13.5425H18.5015C18.2411 13.5425 18.0312 13.7524 18.0312 14.0128V24.4269C18.0312 24.578 18.1025 24.7166 18.2243 24.8048L24.477 29.3651C24.6869 29.5163 24.9809 29.4743 25.132 29.2644L26.2112 27.7904V27.7862C26.3624 27.5763 26.3162 27.2823 26.1063 27.1312L20.7858 23.2847V14.0128C20.79 13.7524 20.5759 13.5425 20.3197 13.5425Z" fill="#F8F8F8"/>
<path d="M34.0722 28.2985H31.645C31.4099 28.2985 31.1873 28.4203 31.0613 28.6219C30.528 29.4659 29.9065 30.247 29.1927 30.9608C27.9623 32.1912 26.5304 33.157 24.9389 33.8289C23.2886 34.526 21.5375 34.8787 19.7318 34.8787C17.922 34.8787 16.1709 34.526 14.5248 33.8289C12.9333 33.157 11.5014 32.1912 10.271 30.9608C9.04062 29.7305 8.0748 28.2985 7.40293 26.707C6.70586 25.0609 6.35312 23.3099 6.35312 21.5C6.35312 19.6901 6.70586 17.9433 7.40293 16.293C8.0748 14.7015 9.04062 13.2695 10.271 12.0392C11.5014 10.8088 12.9333 9.84296 14.5248 9.17109C16.1709 8.47402 17.9262 8.12128 19.7318 8.12128C21.5417 8.12128 23.2928 8.47402 24.9389 9.17109C26.5304 9.84296 27.9623 10.8088 29.1927 12.0392C29.9065 12.753 30.528 13.5341 31.0613 14.3781C31.1873 14.5797 31.4099 14.7015 31.645 14.7015H34.0722C34.3619 14.7015 34.5467 14.3991 34.4165 14.143C31.6786 8.69658 26.1272 5.15664 19.9292 5.08525C10.8547 4.97187 3.31709 12.4003 3.30029 21.4664C3.28349 30.5493 10.6447 37.9189 19.7276 37.9189C26.0055 37.9189 31.6492 34.3664 34.4165 28.857C34.5467 28.6009 34.3577 28.2985 34.0722 28.2985Z" fill="#F8F8F8"/>
</svg>
