<svg width="37" height="36" viewBox="0 0 37 36" fill="none" xmlns="http://www.w3.org/2000/svg">
<path d="M18.5 30C21.771 30 24.908 28.7357 27.221 26.4853C29.5339 24.2348 30.8333 21.1826 30.8333 18C30.8333 14.8174 29.5339 11.7652 27.221 9.51472C24.908 7.26428 21.771 6 18.5 6C15.229 6 12.092 7.26428 9.77903 9.51472C7.46608 11.7652 6.16668 14.8174 6.16668 18C6.16668 21.1826 7.46608 24.2348 9.77903 26.4853C12.092 28.7357 15.229 30 18.5 30ZM18.5 33C9.98539 33 3.08334 26.2845 3.08334 18C3.08334 9.7155 9.98539 3 18.5 3C27.0146 3 33.9167 9.7155 33.9167 18C33.9167 26.2845 27.0146 33 18.5 33Z" fill="white"/>
<path d="M23.7833 22.722V15.222H16.075V14.754C16.075 13.9785 16.7225 13.347 17.5211 13.347H18.9656V10.5345H17.5211C16.3713 10.5357 15.2689 10.9807 14.4559 11.7717C13.6429 12.5628 13.1856 13.6353 13.1843 14.754V15.222H11.2573V18.0345H13.1843V22.722H11.2573V25.5345H18.0021V22.722H16.075V18.0345H20.9204V22.722H18.9656V25.5345H25.7104V22.722H23.7833Z" fill="white"/>
<path d="M22.2031 13.458C23.0554 13.458 23.7463 12.7857 23.7463 11.9565C23.7463 11.1272 23.0554 10.455 22.2031 10.455C21.3508 10.455 20.6599 11.1272 20.6599 11.9565C20.6599 12.7857 21.3508 13.458 22.2031 13.458Z" fill="white"/>
</svg>
