<svg width="38" height="38" viewBox="0 0 38 38" fill="none" xmlns="http://www.w3.org/2000/svg">
<path d="M29.6559 8.56578L27.6292 10.1491L19 16.5616L10.3708 10.0858L8.34418 8.50245C7.86674 8.10748 7.2839 7.86126 6.66789 7.7943C6.05188 7.72734 5.42975 7.84258 4.87859 8.12575C4.32744 8.40891 3.87147 8.84755 3.56717 9.38733C3.26287 9.92711 3.12363 10.5443 3.16668 11.1624V29.5133C3.16668 30.0844 3.39355 30.6321 3.79738 31.0359C4.20121 31.4397 4.74892 31.6666 5.32001 31.6666H10.3708V19.4433L19 25.9191L27.6292 19.4433V31.6666H32.68C33.2511 31.6666 33.7988 31.4397 34.2027 31.0359C34.6065 30.6321 34.8334 30.0844 34.8334 29.5133V11.1624C34.8631 10.5496 34.7142 9.94139 34.4047 9.41163C34.0952 8.88188 33.6385 8.45344 33.09 8.17839C32.5416 7.90334 31.9251 7.79353 31.3154 7.8623C30.7058 7.93107 30.1292 8.17547 29.6559 8.56578Z" fill="white"/>
</svg>
