<svg width="75" height="88" viewBox="0 0 75 88" fill="none" xmlns="http://www.w3.org/2000/svg">
<path d="M1 66V0H5L37.5 60L67.8333 4H57L39 38H36L16 0H21L37.5 32L54 0H70H74V66H54V38L39 66H36L21 38V66H1Z" fill="white"/>
<path d="M1.76438 69.816H2.27638L7.04438 80.264L11.7964 69.816H12.3084V81H11.8604V70.728L7.18838 81H6.88438L2.21238 70.728V81H1.76438V69.816ZM15.2898 71.336C15.1831 71.336 15.0871 71.2933 15.0018 71.208C14.9164 71.1227 14.8738 71.0267 14.8738 70.92C14.8738 70.8027 14.9164 70.7067 15.0018 70.632C15.0871 70.5467 15.1831 70.504 15.2898 70.504C15.4071 70.504 15.5031 70.5467 15.5778 70.632C15.6631 70.7067 15.7057 70.8027 15.7057 70.92C15.7057 71.0267 15.6631 71.1227 15.5778 71.208C15.5031 71.2933 15.4071 71.336 15.2898 71.336ZM15.0658 73.32H15.5138V81H15.0658V73.32ZM18.2644 73.32H18.7124V74.744C19.1284 74.1573 19.6244 73.736 20.2004 73.48C20.7764 73.2133 21.3844 73.08 22.0244 73.08C23.0164 73.08 23.7524 73.336 24.2324 73.848C24.7124 74.3493 24.9524 75.032 24.9524 75.896V81H24.5044V75.912C24.5044 75.1227 24.307 74.52 23.9124 74.104C23.5284 73.6773 22.899 73.464 22.0244 73.464C20.659 73.464 19.555 74.0933 18.7124 75.352V81H18.2644V73.32ZM31.1163 81.24C30.3803 81.24 29.7083 81.0747 29.1003 80.744C28.4923 80.4133 28.0069 79.9387 27.6443 79.32C27.2923 78.7013 27.1163 77.9867 27.1163 77.176C27.1163 76.3653 27.2923 75.6507 27.6443 75.032C27.9963 74.4133 28.4763 73.9333 29.0843 73.592C29.7029 73.2507 30.3803 73.08 31.1163 73.08C31.9056 73.08 32.6363 73.2613 33.3083 73.624C33.9909 73.976 34.4869 74.488 34.7963 75.16V69.176H35.2443V81H34.7963V79.192C34.4336 79.8533 33.9376 80.36 33.3083 80.712C32.6789 81.064 31.9483 81.24 31.1163 81.24ZM31.1163 80.856C32.0123 80.856 32.7856 80.632 33.4363 80.184C34.0976 79.736 34.5509 79.112 34.7963 78.312V76.04C34.5723 75.24 34.1243 74.6107 33.4523 74.152C32.7803 73.6933 32.0016 73.464 31.1163 73.464C30.4656 73.464 29.8629 73.6187 29.3083 73.928C28.7643 74.2267 28.3323 74.6587 28.0123 75.224C27.6923 75.7893 27.5323 76.44 27.5323 77.176C27.5323 77.912 27.6923 78.5573 28.0123 79.112C28.3323 79.6667 28.7643 80.0987 29.3083 80.408C29.8629 80.7067 30.4656 80.856 31.1163 80.856ZM41.4913 81.24C40.7553 81.24 40.0833 81.0747 39.4753 80.744C38.8673 80.4133 38.3819 79.9387 38.0193 79.32C37.6673 78.7013 37.4913 77.9867 37.4913 77.176C37.4913 76.3653 37.6673 75.6507 38.0193 75.032C38.3819 74.4133 38.8726 73.9333 39.4913 73.592C40.1206 73.2507 40.8086 73.08 41.5553 73.08C42.1206 73.08 42.6113 73.1333 43.0273 73.24C43.4539 73.3467 43.8433 73.528 44.1953 73.784V74.184C43.8219 73.9173 43.4273 73.7307 43.0113 73.624C42.5953 73.5173 42.1099 73.464 41.5553 73.464C40.8726 73.464 40.2539 73.6133 39.6993 73.912C39.1446 74.2107 38.7073 74.6427 38.3873 75.208C38.0673 75.7733 37.9073 76.4293 37.9073 77.176C37.9073 77.9227 38.0619 78.5733 38.3713 79.128C38.6913 79.6827 39.1233 80.1093 39.6673 80.408C40.2219 80.7067 40.8299 80.856 41.4913 80.856C42.0993 80.856 42.6166 80.7973 43.0433 80.68C43.4699 80.552 43.8913 80.3493 44.3073 80.072V80.472C43.9339 80.7387 43.5179 80.9307 43.0593 81.048C42.6113 81.176 42.0886 81.24 41.4913 81.24ZM49.6791 81.24C48.9111 81.24 48.2231 81.0693 47.6151 80.728C47.0071 80.3867 46.5271 79.9067 46.1751 79.288C45.8338 78.6693 45.6631 77.96 45.6631 77.16C45.6631 76.36 45.8338 75.6507 46.1751 75.032C46.5271 74.4133 47.0071 73.9333 47.6151 73.592C48.2231 73.2507 48.9111 73.08 49.6791 73.08C50.4471 73.08 51.1351 73.2507 51.7431 73.592C52.3511 73.9333 52.8258 74.4133 53.1671 75.032C53.5191 75.6507 53.6951 76.36 53.6951 77.16C53.6951 77.96 53.5191 78.6693 53.1671 79.288C52.8258 79.9067 52.3511 80.3867 51.7431 80.728C51.1351 81.0693 50.4471 81.24 49.6791 81.24ZM49.6791 80.856C50.3725 80.856 50.9911 80.7067 51.5351 80.408C52.0791 80.0987 52.5058 79.6667 52.8151 79.112C53.1245 78.5573 53.2791 77.9067 53.2791 77.16C53.2791 76.424 53.1245 75.7787 52.8151 75.224C52.5058 74.6587 52.0791 74.2267 51.5351 73.928C50.9911 73.6187 50.3725 73.464 49.6791 73.464C48.9858 73.464 48.3671 73.6187 47.8231 73.928C47.2791 74.2267 46.8525 74.6587 46.5431 75.224C46.2338 75.7787 46.0791 76.424 46.0791 77.16C46.0791 77.9067 46.2338 78.5573 46.5431 79.112C46.8525 79.6667 47.2791 80.0987 47.8231 80.408C48.3671 80.7067 48.9858 80.856 49.6791 80.856ZM59.3819 81.24C58.6459 81.24 57.9739 81.0747 57.3659 80.744C56.7579 80.4133 56.2725 79.9387 55.9099 79.32C55.5579 78.7013 55.3819 77.9867 55.3819 77.176C55.3819 76.3653 55.5579 75.6507 55.9099 75.032C56.2619 74.4133 56.7419 73.9333 57.3499 73.592C57.9685 73.2507 58.6459 73.08 59.3819 73.08C60.1712 73.08 60.9019 73.2613 61.5739 73.624C62.2565 73.976 62.7525 74.488 63.0619 75.16V69.176H63.5099V81H63.0619V79.192C62.6992 79.8533 62.2032 80.36 61.5739 80.712C60.9445 81.064 60.2139 81.24 59.3819 81.24ZM59.3819 80.856C60.2779 80.856 61.0512 80.632 61.7019 80.184C62.3632 79.736 62.8165 79.112 63.0619 78.312V76.04C62.8379 75.24 62.3899 74.6107 61.7179 74.152C61.0459 73.6933 60.2672 73.464 59.3819 73.464C58.7312 73.464 58.1285 73.6187 57.5739 73.928C57.0299 74.2267 56.5979 74.6587 56.2779 75.224C55.9579 75.7893 55.7979 76.44 55.7979 77.176C55.7979 77.912 55.9579 78.5573 56.2779 79.112C56.5979 79.6667 57.0299 80.0987 57.5739 80.408C58.1285 80.7067 58.7312 80.856 59.3819 80.856ZM70.0289 81.24C68.6635 81.24 67.6075 80.8827 66.8609 80.168C66.1249 79.4533 65.7569 78.4507 65.7569 77.16C65.7569 75.9013 66.0929 74.9093 66.7649 74.184C67.4475 73.448 68.4075 73.08 69.6449 73.08C70.4875 73.08 71.2022 73.2453 71.7889 73.576C72.3755 73.9067 72.8129 74.36 73.1009 74.936C73.3995 75.512 73.5489 76.1733 73.5489 76.92V77.32H66.1569C66.1569 78.472 66.5035 79.352 67.1969 79.96C67.8902 80.568 68.8342 80.872 70.0289 80.872C70.5195 80.872 70.9995 80.8293 71.4689 80.744C71.9489 80.648 72.3702 80.5307 72.7329 80.392V80.776C72.4342 80.904 72.0235 81.0107 71.5009 81.096C70.9889 81.192 70.4982 81.24 70.0289 81.24ZM73.1489 76.952C73.1489 75.896 72.8555 75.048 72.2689 74.408C71.6929 73.768 70.8182 73.448 69.6449 73.448C68.4822 73.448 67.6075 73.7787 67.0209 74.44C66.4449 75.1013 66.1569 75.9387 66.1569 76.952H73.1489Z" fill="white"/>
</svg>
