<svg width="41" height="36" viewBox="0 0 41 36" fill="none" xmlns="http://www.w3.org/2000/svg">
<path d="M39.7352 23.4893C38.8241 22.2718 37.0866 22.0086 35.8512 22.9103L27.5387 28.9376H19.1637C18.5562 28.9376 18.1151 28.442 18.1151 27.8445C18.1151 27.2464 18.6185 26.7508 19.1637 26.7508H24.5977C25.6463 26.7508 26.7331 26.007 26.9151 24.931C27.1407 23.5638 26.0734 22.3758 24.7192 22.3758H13.5477C11.7352 22.3758 9.8588 23.0081 8.40047 24.1702L5.1713 26.7501L1.32547 26.6885C0.780397 26.6885 0.276855 27.249 0.276855 27.8438V34.4049C0.276855 35.0078 0.780397 35.5 1.32547 35.5H25.3602C26.8901 35.5 28.4102 35.0086 29.6449 34.1144L39.0269 27.3112C40.381 26.415 40.6449 24.7061 39.7352 23.4893ZM19.6727 12.4629C19.1449 12.3877 18.4505 12.1416 17.8394 11.9229L17.4991 11.8066C16.631 11.4443 15.6796 11.9502 15.3741 12.7432C15.0685 13.5361 15.5214 14.5342 16.3873 14.8377L16.7105 14.9509C17.2998 15.1601 17.9522 15.3675 18.6126 15.5191V16.3594C18.6126 17.2651 19.3578 18 20.2779 18C21.198 18 21.9446 17.2651 21.9446 16.3594V15.6484C23.6994 15.2572 24.9223 14.1548 25.146 12.523C25.7493 9.10166 22.4453 8.17129 20.6723 7.67295L20.3046 7.54785C18.4782 7.03789 18.5824 6.81777 18.631 6.53682C18.7113 6.0743 19.6935 5.84912 20.8678 6.03157C21.2107 6.08496 21.6574 6.20568 22.2324 6.40222C23.1026 6.69486 24.0526 6.24417 24.3519 5.38776C24.6512 4.53136 24.1915 3.59743 23.3213 3.30075C22.7934 3.12117 22.3546 3.00284 21.9449 2.90967V2.14062C21.9449 1.23486 21.1984 0.5 20.2782 0.5C19.3581 0.5 18.613 1.23486 18.613 2.14062V2.85977C16.8602 3.2501 15.631 4.34521 15.2838 5.97764C14.7491 9.35938 18.1032 10.3301 19.3671 10.6992L19.8184 10.8274C22.017 11.4469 21.9816 11.6402 21.9253 11.9649C21.8463 12.4287 20.8671 12.6543 19.6727 12.4629Z" fill="#F8F8F8"/>
</svg>
