<svg width="36" height="36" viewBox="0 0 36 36" fill="none" xmlns="http://www.w3.org/2000/svg">
<path d="M13.7423 7.37709C10.0873 11.48 7.57895 17.3746 7.34603 17.93L0.860199 15.1529L9.47812 6.535L13.7423 7.37709ZM17.2898 26.4583C17.2898 26.4583 23.9906 23.6813 27.8427 19.8292C37.5177 10.1542 35.9052 2.59334 35.3856 0.891254C33.6835 0.353754 26.1227 -1.24083 16.4477 8.43417C12.5956 12.2863 9.81853 18.9871 9.81853 18.9871L17.2898 26.4583ZM28.8998 22.5346C24.7969 26.1896 18.9023 28.6979 18.3469 28.9308L21.1239 35.4167L29.7419 26.7988L28.8998 22.5346ZM13.4019 28.25C13.4019 29.7371 12.7927 31.0808 11.8252 32.0483C9.71103 34.1625 0.860199 35.4167 0.860199 35.4167C0.860199 35.4167 2.11437 26.5658 4.22853 24.4517C4.97888 23.6974 5.93644 23.1831 6.97963 22.9741C8.02283 22.7652 9.1046 22.8709 10.0876 23.2779C11.0706 23.6849 11.9104 24.3749 12.5005 25.2601C13.0906 26.1454 13.4044 27.1861 13.4019 28.25ZM20.5685 12.125C20.5685 10.1542 22.181 8.54167 24.1519 8.54167C26.1227 8.54167 27.7352 10.1542 27.7352 12.125C27.7352 14.0958 26.1227 15.7083 24.1519 15.7083C22.181 15.7083 20.5685 14.0958 20.5685 12.125Z" fill="#F8F8F8"/>
</svg>
