<svg width="37" height="38" viewBox="0 0 37 38" fill="none" xmlns="http://www.w3.org/2000/svg">
<path d="M31.08 11.045C26.64 4.19997 17.575 2.16497 10.545 6.41997C3.7 10.675 1.48 19.925 5.92 26.77L6.29 27.325L4.81 32.875L10.36 31.395L10.915 31.765C13.32 33.06 15.91 33.8 18.5 33.8C21.275 33.8 24.05 33.06 26.455 31.58C33.3 27.14 35.335 18.075 31.08 11.045ZM27.195 25.29C26.455 26.4 25.53 27.14 24.235 27.325C23.495 27.325 22.57 27.695 18.87 26.215C15.725 24.735 13.135 22.33 11.285 19.555C10.175 18.26 9.62 16.595 9.435 14.93C9.435 13.45 9.99001 12.155 10.915 11.23C11.285 10.86 11.655 10.675 12.025 10.675H12.95C13.32 10.675 13.69 10.675 13.875 11.415C14.245 12.34 15.17 14.56 15.17 14.745C15.355 14.93 15.355 15.3 15.17 15.485C15.355 15.855 15.17 16.225 14.985 16.41C14.8 16.595 14.615 16.965 14.43 17.15C14.06 17.335 13.875 17.705 14.06 18.075C14.8 19.185 15.725 20.295 16.65 21.22C17.76 22.145 18.87 22.885 20.165 23.44C20.535 23.625 20.905 23.625 21.09 23.255C21.275 22.885 22.2 21.96 22.57 21.59C22.94 21.22 23.125 21.22 23.495 21.405L26.455 22.885C26.825 23.07 27.195 23.255 27.38 23.44C27.565 23.995 27.565 24.735 27.195 25.29Z" fill="white"/>
</svg>
